<?xml version="1.0" encoding="utf-8"?>
<!-- Generator: Adobe Illustrator 22.1.0, SVG Export Plug-In . SVG Version: 6.00 Build 0)  -->
<svg version="1.1" id="Layer_1" xmlns="http://www.w3.org/2000/svg" xmlns:xlink="http://www.w3.org/1999/xlink" x="0px" y="0px"
	 viewBox="0 0 100 100" style="enable-background:new 0 0 100 100;" xml:space="preserve">
<style type="text/css">
	.st0{fill:#FFFFFF;}
	.st1{fill:#EEEDF4;}
	.st2{fill:none;stroke:#000000;stroke-width:2.0312;stroke-miterlimit:10;}
	.st3{fill:none;stroke:#000000;stroke-width:1.8202;stroke-miterlimit:10;}
	.st4{stroke:#000000;stroke-width:2;stroke-miterlimit:10;}
	.st5{fill:#15CCBA;}
	.st6{fill:none;stroke:#15CCBA;stroke-width:2.2864;stroke-linecap:round;stroke-miterlimit:10;}
	.st7{fill:none;stroke:#000000;stroke-width:3;stroke-linecap:round;stroke-miterlimit:10;}
	.st8{fill:none;stroke:#000000;stroke-width:2.2864;stroke-linecap:round;stroke-miterlimit:10;}
	.st9{fill:none;stroke:#15CCBA;stroke-width:3;stroke-linecap:round;stroke-miterlimit:10;}
	.st10{fill:none;stroke:#CCCCCC;stroke-width:2;stroke-miterlimit:10;}
	.st11{fill:none;stroke:#333333;stroke-width:2.5615;stroke-linecap:round;stroke-linejoin:round;stroke-miterlimit:10;}
	.st12{fill:none;stroke:#333333;stroke-width:1.9211;stroke-linecap:round;stroke-linejoin:round;stroke-miterlimit:10;}
	.st13{fill:none;stroke:#E6E6E6;stroke-width:2.5;stroke-linejoin:round;stroke-miterlimit:10;}
	.st14{fill:none;stroke:#E6E6E6;stroke-width:2.5333;stroke-linecap:round;stroke-linejoin:round;stroke-miterlimit:10;}
	.st15{fill:#1A1A1A;}
	.st16{fill:none;stroke:#15CCBA;stroke-width:5.5885;stroke-linecap:round;stroke-miterlimit:10;}
	.st17{fill:none;stroke:#15CCBA;stroke-width:4.6992;stroke-linecap:round;stroke-miterlimit:10;}
	.st18{fill:#333333;}
	.st19{opacity:0.75;fill:#1A1A1A;}
	.st20{fill:none;stroke:#FFFFFF;stroke-width:4.6992;stroke-linecap:round;stroke-miterlimit:10;}
	.st21{fill:none;stroke:#FFFFFF;stroke-width:2.8979;stroke-linecap:round;stroke-miterlimit:10;}
	.st22{fill:none;stroke:#1A1A1A;stroke-width:2.5206;stroke-linecap:round;stroke-miterlimit:10;}
	.st23{fill:none;stroke:#000000;stroke-width:2.5615;stroke-linejoin:round;stroke-miterlimit:10;}
	.st24{fill:none;stroke:#000000;stroke-width:2.5615;stroke-linecap:round;stroke-linejoin:round;stroke-miterlimit:10;}
	.st25{fill:none;stroke:#000000;stroke-width:1.9211;stroke-linecap:round;stroke-linejoin:round;stroke-miterlimit:10;}
	.st26{fill:#E6E6E6;}
	.st27{fill:none;stroke:#000000;stroke-width:2.5283;stroke-linecap:round;stroke-linejoin:round;stroke-miterlimit:10;}
	.st28{fill:none;stroke:#15CCBA;stroke-width:2.5283;stroke-linecap:round;stroke-linejoin:round;stroke-miterlimit:10;}
	.st29{opacity:0.45;fill:#1A1A1A;}
	.st30{fill:none;stroke:#CCCCCC;stroke-miterlimit:10;}
	.st31{opacity:0.65;fill:#15CCBA;}
	
		.st32{opacity:0.65;fill:none;stroke:#15CCBA;stroke-width:1.9915;stroke-linecap:round;stroke-linejoin:round;stroke-miterlimit:10;}
	.st33{fill:none;stroke:#000000;stroke-width:1.6364;stroke-miterlimit:10;}
	.st34{stroke:#000000;stroke-width:1.6364;stroke-miterlimit:10;}
	.st35{fill:none;stroke:#000000;stroke-width:1.5;stroke-linecap:round;stroke-linejoin:round;stroke-miterlimit:10;}
	.st36{fill:none;stroke:#000000;stroke-width:1.636;stroke-linecap:round;stroke-linejoin:round;stroke-miterlimit:10;}
	.st37{fill:none;stroke:#000000;stroke-width:1.636;stroke-linecap:round;stroke-miterlimit:10;}
	.st38{fill:#4D4D4D;}
	.st39{fill:none;stroke:#4D4D4D;stroke-width:2.773;stroke-miterlimit:10;}
	.st40{fill:none;stroke:#15CCBA;stroke-width:2.6325;stroke-miterlimit:10;}
	.st41{fill:none;stroke:#15CCBA;stroke-width:2;stroke-miterlimit:10;}
	.st42{fill:none;stroke:#000000;stroke-width:1.5434;stroke-miterlimit:10;}
	.st43{fill:none;stroke:#000000;stroke-width:4;stroke-linecap:round;stroke-linejoin:round;stroke-miterlimit:10;}
	.st44{fill:none;stroke:#000000;stroke-width:1.543;stroke-linecap:round;stroke-miterlimit:10;}
	.st45{fill:none;stroke:#000000;stroke-width:1.3803;stroke-linecap:round;stroke-linejoin:round;stroke-miterlimit:10;}
	.st46{fill:none;stroke:#000000;stroke-width:1.9874;stroke-linecap:round;stroke-linejoin:round;stroke-miterlimit:10;}
	.st47{fill:none;stroke:#000000;stroke-width:1.987;stroke-linecap:round;stroke-linejoin:round;stroke-miterlimit:10;}
	.st48{fill:none;stroke:#000000;stroke-width:1.7411;stroke-linecap:round;stroke-linejoin:round;stroke-miterlimit:10;}
</style>
<g>
	<path d="M24,23.7v51.1c0,2.9,2.3,5.2,5.2,5.2h41.7c0.5,0,1-0.4,1-1c0-0.5-0.4-1-1-1H29.1c-1.8,0-3.2-1.4-3.2-3.2V23.7
		c0-1,0.8-1.8,1.8-1.8h24.9c0.5,0,1-0.4,1-1c0-0.5-0.4-1-1-1H27.7C25.6,20,24,21.7,24,23.7z"/>
	<g>
		<line class="st8" x1="33.6" y1="35.5" x2="51" y2="35.5"/>
		<line class="st8" x1="33.6" y1="45" x2="44" y2="45"/>
		<line class="st8" x1="33.6" y1="54.5" x2="54" y2="54.5"/>
		<line class="st8" x1="33.6" y1="64" x2="49" y2="64"/>
	</g>
	<g>
		<path d="M72.3,26.7h-4.5v-2.9c0-2.1-1.7-3.7-3.7-3.7H51.5c-0.5,0-1,0.4-1,1c0,0.5,0.4,1,1,1h12.6c1,0,1.8,0.8,1.8,1.8v51.5
			c0.3-0.1,0.7-0.2,1.1-0.2c0.3,0,0.6,0.1,0.9,0.2V28.7h4.5c1,0,1.8,0.8,1.8,1.8V75c0,1.7-1.4,3-3.1,3c-1.7,0-3.1-1.5-3.1-3.2v-0.7
			c-0.3,0.1-0.6,0.2-0.9,0.2c-0.4,0-0.7-0.1-1.1-0.2v0.7c0,2.9,2.3,5.2,5.1,5.2c2.9,0,5.1-2.2,5.1-5V30.4
			C76,28.3,74.4,26.7,72.3,26.7z"/>
	</g>
</g>
</svg>
